<svg xmlns="http://www.w3.org/2000/svg" viewBox="0 0 1500 1500"><defs><style>.cls-1{fill:#033333;}.cls-2{fill:#32a566;}.cls-3{fill:#333;}</style></defs><title>edv</title><g id="Layer_2" data-name="Layer 2"><g id="Layer_1-2" data-name="Layer 1"><g id="Layer_2-2" data-name="Layer 2"><g id="Layer_1-2-2" data-name="Layer 1-2"><g id="BACKGORUND"><circle class="cls-1" cx="750" cy="750" r="750"/></g><g id="Layer_2-2-2" data-name="Layer 2-2"><g id="Layer_1-2-2-2" data-name="Layer 1-2-2"><g id="Layer_2-2-2-2" data-name="Layer 2-2-2"><g id="Layer_1-2-2-2-2" data-name="Layer 1-2-2-2"><polygon class="cls-2" points="1481.42 750 1384.08 837.07 1290.36 929.38 1169.8 987.94 1177.76 1121.44 1144.39 1248.62 1119.56 1377.04 996.35 1332.81 869.58 1298.29 757.42 1226 645.26 1298.29 518.49 1332.81 395.28 1377.04 370.45 1248.62 337.08 1121.45 345.04 987.94 224.48 929.38 130.75 837.07 33.42 750 130.75 662.93 224.48 570.61 345.04 512.06 337.08 378.55 370.45 251.38 395.28 122.96 518.49 167.19 645.26 201.71 757.42 274 869.58 201.71 996.35 167.19 1119.56 122.96 1144.39 251.38 1177.76 378.55 1169.8 512.06 1290.36 570.61 1384.09 662.93 1481.42 750"/></g></g><path class="cls-3" d="M711.48,889.69l16.94-79.4L768.56,747,842.7,674.4l12-84.23-20.28-87.3-85.68-21.15L664.86,502.1l-24.59,86.25-49.59-9.09-6.11,2.7,52.14-106.51,112-49,115.22,51.3,51.5,112-37.37,98.71-72.22,98.85-40.12,36.8,1.6,65.84Zm63.84,170.38-58.42-6.67-7.48-65.2,58.44,6.7Z"/></g></g></g></g></g></g></svg>